<svg width="30" height="30" viewBox="0 0 30 30" fill="none" xmlns="http://www.w3.org/2000/svg">
<path d="M21.8945 15.6943C21.8828 13.6963 22.7881 12.1904 24.6162 11.0801C23.5938 9.61524 22.0469 8.80957 20.0078 8.6543C18.0771 8.50195 15.9648 9.7793 15.1914 9.7793C14.374 9.7793 12.5049 8.70703 11.0342 8.70703C7.99902 8.75391 4.77344 11.127 4.77344 15.9551C4.77344 17.3818 5.03418 18.8555 5.55566 20.373C6.25293 22.3711 8.7666 27.2666 11.3887 27.1875C12.7598 27.1553 13.7295 26.2148 15.5137 26.2148C17.2451 26.2148 18.1416 27.1875 19.6709 27.1875C22.3164 27.1494 24.5898 22.6992 25.252 20.6953C21.7041 19.0225 21.8945 15.7969 21.8945 15.6943ZM18.8154 6.75879C20.3008 4.99512 20.166 3.38965 20.1221 2.8125C18.8096 2.88867 17.292 3.70605 16.4277 4.71094C15.4756 5.78906 14.916 7.12207 15.0361 8.625C16.4541 8.7334 17.749 8.00391 18.8154 6.75879Z" fill="white"/>
</svg>
