<svg width="20" height="20" viewBox="0 0 20 20" fill="none" xmlns="http://www.w3.org/2000/svg">
<path d="M2.87012 5.55512C2.87012 5.14993 3.03108 4.76133 3.31759 4.47482C3.60411 4.18831 3.9927 4.02734 4.3979 4.02734H15.6016C16.0068 4.02734 16.3954 4.18831 16.6819 4.47482C16.9684 4.76133 17.1294 5.14993 17.1294 5.55512V7.0829H2.87012V5.55512Z" fill="black"/>
<path fill-rule="evenodd" clip-rule="evenodd" d="M14.0738 2.5C14.2089 2.5 14.3384 2.55365 14.4339 2.64916C14.5294 2.74466 14.5831 2.8742 14.5831 3.00926V5.0463C14.5831 5.18136 14.5294 5.31089 14.4339 5.4064C14.3384 5.5019 14.2089 5.55556 14.0738 5.55556C13.9388 5.55556 13.8092 5.5019 13.7137 5.4064C13.6182 5.31089 13.5646 5.18136 13.5646 5.0463V3.00926C13.5646 2.8742 13.6182 2.74466 13.7137 2.64916C13.8092 2.55365 13.9388 2.5 14.0738 2.5ZM5.92567 2.5C6.06074 2.5 6.19027 2.55365 6.28577 2.64916C6.38128 2.74466 6.43493 2.8742 6.43493 3.00926V5.0463C6.43493 5.18136 6.38128 5.31089 6.28577 5.4064C6.19027 5.5019 6.06074 5.55556 5.92567 5.55556C5.79061 5.55556 5.66108 5.5019 5.56557 5.4064C5.47007 5.31089 5.41641 5.18136 5.41641 5.0463V3.00926C5.41641 2.8742 5.47007 2.74466 5.56557 2.64916C5.66108 2.55365 5.79061 2.5 5.92567 2.5ZM2.87012 8.10185H17.1294V14.7222C17.1294 15.1274 16.9684 15.516 16.6819 15.8025C16.3954 16.089 16.0068 16.25 15.6016 16.25H4.3979C3.9927 16.25 3.60411 16.089 3.31759 15.8025C3.03108 15.516 2.87012 15.1274 2.87012 14.7222V8.10185ZM13.5646 10.1389C13.5646 10.0038 13.6182 9.87429 13.7137 9.77879C13.8092 9.68328 13.9388 9.62963 14.0738 9.62963H15.0923C15.2274 9.62963 15.3569 9.68328 15.4524 9.77879C15.5479 9.87429 15.6016 10.0038 15.6016 10.1389C15.6016 10.274 15.5479 10.4035 15.4524 10.499C15.3569 10.5945 15.2274 10.6481 15.0923 10.6481H14.0738C13.9388 10.6481 13.8092 10.5945 13.7137 10.499C13.6182 10.4035 13.5646 10.274 13.5646 10.1389ZM11.0183 9.62963C10.8832 9.62963 10.7537 9.68328 10.6582 9.77879C10.5627 9.87429 10.509 10.0038 10.509 10.1389C10.509 10.274 10.5627 10.4035 10.6582 10.499C10.7537 10.5945 10.8832 10.6481 11.0183 10.6481H12.0368C12.1718 10.6481 12.3014 10.5945 12.3969 10.499C12.4924 10.4035 12.546 10.274 12.546 10.1389C12.546 10.0038 12.4924 9.87429 12.3969 9.77879C12.3014 9.68328 12.1718 9.62963 12.0368 9.62963H11.0183ZM7.45345 10.1389C7.45345 10.0038 7.5071 9.87429 7.60261 9.77879C7.69811 9.68328 7.82765 9.62963 7.96271 9.62963H8.98123C9.11629 9.62963 9.24582 9.68328 9.34133 9.77879C9.43683 9.87429 9.49049 10.0038 9.49049 10.1389C9.49049 10.274 9.43683 10.4035 9.34133 10.499C9.24582 10.5945 9.11629 10.6481 8.98123 10.6481H7.96271C7.82765 10.6481 7.69811 10.5945 7.60261 10.499C7.5071 10.4035 7.45345 10.274 7.45345 10.1389ZM4.90715 11.6667C4.77209 11.6667 4.64256 11.7203 4.54705 11.8158C4.45155 11.9113 4.3979 12.0409 4.3979 12.1759C4.3979 12.311 4.45155 12.4405 4.54705 12.536C4.64256 12.6315 4.77209 12.6852 4.90715 12.6852H5.92567C6.06074 12.6852 6.19027 12.6315 6.28577 12.536C6.38128 12.4405 6.43493 12.311 6.43493 12.1759C6.43493 12.0409 6.38128 11.9113 6.28577 11.8158C6.19027 11.7203 6.06074 11.6667 5.92567 11.6667H4.90715ZM13.5646 12.1759C13.5646 12.0409 13.6182 11.9113 13.7137 11.8158C13.8092 11.7203 13.9388 11.6667 14.0738 11.6667H15.0923C15.2274 11.6667 15.3569 11.7203 15.4524 11.8158C15.5479 11.9113 15.6016 12.0409 15.6016 12.1759C15.6016 12.311 15.5479 12.4405 15.4524 12.536C15.3569 12.6315 15.2274 12.6852 15.0923 12.6852H14.0738C13.9388 12.6852 13.8092 12.6315 13.7137 12.536C13.6182 12.4405 13.5646 12.311 13.5646 12.1759ZM11.0183 11.6667C10.8832 11.6667 10.7537 11.7203 10.6582 11.8158C10.5627 11.9113 10.509 12.0409 10.509 12.1759C10.509 12.311 10.5627 12.4405 10.6582 12.536C10.7537 12.6315 10.8832 12.6852 11.0183 12.6852H12.0368C12.1718 12.6852 12.3014 12.6315 12.3969 12.536C12.4924 12.4405 12.546 12.311 12.546 12.1759C12.546 12.0409 12.4924 11.9113 12.3969 11.8158C12.3014 11.7203 12.1718 11.6667 12.0368 11.6667H11.0183ZM7.45345 12.1759C7.45345 12.0409 7.5071 11.9113 7.60261 11.8158C7.69811 11.7203 7.82765 11.6667 7.96271 11.6667H8.98123C9.11629 11.6667 9.24582 11.7203 9.34133 11.8158C9.43683 11.9113 9.49049 12.0409 9.49049 12.1759C9.49049 12.311 9.43683 12.4405 9.34133 12.536C9.24582 12.6315 9.11629 12.6852 8.98123 12.6852H7.96271C7.82765 12.6852 7.69811 12.6315 7.60261 12.536C7.5071 12.4405 7.45345 12.311 7.45345 12.1759ZM4.90715 13.7037C4.77209 13.7037 4.64256 13.7574 4.54705 13.8529C4.45155 13.9484 4.3979 14.0779 4.3979 14.213C4.3979 14.348 4.45155 14.4776 4.54705 14.5731C4.64256 14.6686 4.77209 14.7222 4.90715 14.7222H5.92567C6.06074 14.7222 6.19027 14.6686 6.28577 14.5731C6.38128 14.4776 6.43493 14.348 6.43493 14.213C6.43493 14.0779 6.38128 13.9484 6.28577 13.8529C6.19027 13.7574 6.06074 13.7037 5.92567 13.7037H4.90715ZM10.509 14.213C10.509 14.0779 10.5627 13.9484 10.6582 13.8529C10.7537 13.7574 10.8832 13.7037 11.0183 13.7037H12.0368C12.1718 13.7037 12.3014 13.7574 12.3969 13.8529C12.4924 13.9484 12.546 14.0779 12.546 14.213C12.546 14.348 12.4924 14.4776 12.3969 14.5731C12.3014 14.6686 12.1718 14.7222 12.0368 14.7222H11.0183C10.8832 14.7222 10.7537 14.6686 10.6582 14.5731C10.5627 14.4776 10.509 14.348 10.509 14.213ZM7.96271 13.7037C7.82765 13.7037 7.69811 13.7574 7.60261 13.8529C7.5071 13.9484 7.45345 14.0779 7.45345 14.213C7.45345 14.348 7.5071 14.4776 7.60261 14.5731C7.69811 14.6686 7.82765 14.7222 7.96271 14.7222H8.98123C9.11629 14.7222 9.24582 14.6686 9.34133 14.5731C9.43683 14.4776 9.49049 14.348 9.49049 14.213C9.49049 14.0779 9.43683 13.9484 9.34133 13.8529C9.24582 13.7574 9.11629 13.7037 8.98123 13.7037H7.96271Z" fill="black"/>
</svg>
