<svg width="20" height="20" viewBox="0 0 20 20" fill="none" xmlns="http://www.w3.org/2000/svg">
<path d="M17.5 9.99815V10.1078C17.4755 11.1362 17.094 12.306 15.4808 12.306C13.812 12.306 13.4615 11.0511 13.4615 9.99815V7.11336C13.4617 7.03427 13.4456 6.95599 13.4143 6.88337C13.3829 6.81076 13.337 6.74537 13.2793 6.69126C13.2216 6.63716 13.1534 6.59549 13.0789 6.56885C13.0045 6.54221 12.9253 6.53117 12.8464 6.53641C12.6978 6.54917 12.5596 6.61782 12.4596 6.72851C12.3596 6.8392 12.3053 6.98369 12.3077 7.13284V7.42131C11.7869 6.95451 11.1369 6.65642 10.4433 6.56632C9.74976 6.47621 9.04518 6.59833 8.42239 6.91657C7.79959 7.2348 7.2878 7.73424 6.95442 8.34909C6.62105 8.96394 6.48172 9.66536 6.55481 10.361C6.62789 11.0566 6.90996 11.7137 7.36384 12.2458C7.81773 12.7779 8.42215 13.1601 9.09749 13.3419C9.77282 13.5237 10.4874 13.4967 11.1471 13.2644C11.8068 13.0321 12.3806 12.6054 12.793 12.0406C12.8651 12.1667 12.9466 12.2872 13.0368 12.4012C13.424 12.8829 14.1618 13.4599 15.4808 13.4599C15.7035 13.4606 15.926 13.4425 16.1457 13.4058C16.2 13.3967 16.2558 13.4034 16.3064 13.425C16.3571 13.4467 16.4005 13.4824 16.4315 13.5279C16.4625 13.5734 16.4798 13.6268 16.4815 13.6818C16.4831 13.7369 16.4689 13.7913 16.4406 13.8385C15.7626 14.9759 14.7956 15.9137 13.638 16.5565C12.4803 17.1993 11.1732 17.5244 9.84928 17.4986C5.8988 17.4192 2.65865 14.2431 2.50577 10.2946C2.46666 9.29807 2.62666 8.30379 2.9764 7.36988C3.32613 6.43597 3.85859 5.58119 4.54261 4.85554C5.22663 4.12988 6.04849 3.54793 6.9601 3.14373C7.87171 2.73952 8.85477 2.52117 9.85178 2.50147C10.8488 2.48176 11.8397 2.66108 12.7666 3.02894C13.6934 3.3968 14.5377 3.94582 15.2498 4.64387C15.962 5.34193 16.5278 6.175 16.9142 7.09436C17.3005 8.01371 17.4997 9.00089 17.5 9.99815ZM7.69231 9.99815C7.69231 10.4546 7.82765 10.9008 8.08122 11.2803C8.3348 11.6598 8.69521 11.9556 9.11688 12.1303C9.53856 12.305 10.0026 12.3507 10.4502 12.2616C10.8979 12.1726 11.309 11.9528 11.6318 11.63C11.9545 11.3073 12.1743 10.8961 12.2634 10.4484C12.3524 10.0007 12.3067 9.53668 12.132 9.11498C11.9574 8.69328 11.6616 8.33285 11.2821 8.07926C10.9026 7.82567 10.4564 7.69032 10 7.69032C9.38796 7.69032 8.80099 7.93347 8.36822 8.36627C7.93544 8.79907 7.69231 9.38607 7.69231 9.99815Z" fill="#111827"/>
</svg>
