<svg width="20" height="20" viewBox="0 0 20 20" fill="none" xmlns="http://www.w3.org/2000/svg">
<path d="M4.99968 18.334C4.54134 18.334 4.14884 18.1707 3.82218 17.844C3.49551 17.5173 3.33245 17.1251 3.33301 16.6673V8.33399C3.33301 7.87565 3.49634 7.48315 3.82301 7.15649C4.14968 6.82982 4.5419 6.66676 4.99968 6.66732H5.83301V5.00065C5.83301 3.84787 6.2394 2.8651 7.05218 2.05232C7.86495 1.23954 8.84745 0.833429 9.99968 0.833985C11.1525 0.833985 12.1352 1.24037 12.948 2.05315C13.7608 2.86593 14.1669 3.84843 14.1663 5.00065V6.66732H14.9997C15.458 6.66732 15.8505 6.83065 16.1772 7.15732C16.5038 7.48399 16.6669 7.87621 16.6663 8.33399V16.6673C16.6663 17.1257 16.503 17.5182 16.1763 17.8448C15.8497 18.1715 15.4575 18.3345 14.9997 18.334H4.99968ZM9.99968 14.1673C10.458 14.1673 10.8505 14.004 11.1772 13.6773C11.5038 13.3507 11.6669 12.9584 11.6663 12.5007C11.6663 12.0423 11.503 11.6498 11.1763 11.3232C10.8497 10.9965 10.4575 10.8334 9.99968 10.834C9.54134 10.834 9.14884 10.9973 8.82218 11.324C8.49551 11.6507 8.33245 12.0429 8.33301 12.5007C8.33301 12.959 8.49634 13.3515 8.82301 13.6782C9.14968 14.0048 9.5419 14.1679 9.99968 14.1673ZM7.49968 6.66732H12.4997V5.00065C12.4997 4.30621 12.2566 3.71593 11.7705 3.22982C11.2844 2.74371 10.6941 2.50065 9.99968 2.50065C9.30523 2.50065 8.71495 2.74371 8.22884 3.22982C7.74273 3.71593 7.49968 4.30621 7.49968 5.00065V6.66732Z" fill="#1F2937"/>
</svg>
