<svg width="30" height="30" viewBox="0 0 30 30" fill="none" xmlns="http://www.w3.org/2000/svg">
<path d="M4.81562 2.52734C4.5575 2.59422 4.375 2.81734 4.375 3.20109C4.375 4.32734 4.375 14.948 4.375 14.948C4.375 14.948 4.375 26.4255 4.375 26.9323C4.375 27.2111 4.49813 27.398 4.6875 27.4673L17.3006 14.9273L4.81562 2.52734Z" fill="#4DB6AC"/>
<path d="M20.7739 11.474L15.582 8.47653C15.582 8.47653 6.05391 2.97465 5.49391 2.65153C5.25141 2.51153 5.01266 2.47465 4.81641 2.5259L17.302 14.9259L20.7739 11.474Z" fill="#DCE775"/>
<path d="M5.26062 27.3752C5.59312 27.1827 14.8131 21.8595 20.8013 18.402L17.3006 14.9258L4.6875 27.4658C4.8425 27.5227 5.04125 27.5014 5.26062 27.3752Z" fill="#D32F2F"/>
<path d="M25.8739 14.4209C25.3764 14.1528 20.8114 11.4984 20.8114 11.4984L20.7733 11.4766L17.3008 14.9284L20.8014 18.4047C23.5714 16.8053 25.652 15.6047 25.8383 15.4966C26.4283 15.1566 26.3714 14.6891 25.8739 14.4209Z" fill="#FBC02D"/>
</svg>
