<svg width="20" height="20" viewBox="0 0 20 20" fill="none" xmlns="http://www.w3.org/2000/svg">
<path d="M10.0003 1.66602C7.81699 1.66602 6.04199 3.44102 6.04199 5.62435C6.04199 7.76602 7.71699 9.49935 9.90033 9.57435C9.96699 9.56602 10.0337 9.56602 10.0837 9.57435C10.1003 9.57435 10.1087 9.57435 10.1253 9.57435C10.1337 9.57435 10.1337 9.57435 10.142 9.57435C12.2753 9.49935 13.9503 7.76602 13.9587 5.62435C13.9587 3.44102 12.1837 1.66602 10.0003 1.66602Z" fill="#292D32"/>
<path d="M14.2338 11.7914C11.9088 10.2414 8.11712 10.2414 5.77546 11.7914C4.71712 12.4997 4.13379 13.4581 4.13379 14.4831C4.13379 15.5081 4.71712 16.4581 5.76712 17.1581C6.93379 17.9414 8.46712 18.3331 10.0005 18.3331C11.5338 18.3331 13.0671 17.9414 14.2338 17.1581C15.2838 16.4497 15.8671 15.4997 15.8671 14.4664C15.8588 13.4414 15.2838 12.4914 14.2338 11.7914Z" fill="#292D32"/>
</svg>
